<mxfile host="Electron" modified="2024-02-17T18:21:38.305Z" agent="Mozilla/5.0 (Windows NT 10.0; Win64; x64) AppleWebKit/537.36 (KHTML, like Gecko) draw.io/23.0.2 Chrome/120.0.6099.109 Electron/28.1.0 Safari/537.36" etag="fZIbhNkw8GTwtxc4MeKP" version="23.0.2" type="device">
  <diagram name="Strona-1" id="Tqxeov-ygwfD55NC33RO">
    <mxGraphModel dx="2448" dy="983" grid="1" gridSize="10" guides="1" tooltips="1" connect="1" arrows="1" fold="1" page="1" pageScale="1" pageWidth="827" pageHeight="1169" math="0" shadow="0">
      <root>
        <mxCell id="0" />
        <mxCell id="1" parent="0" />
        <mxCell id="it-Qx0HV6BYF5Q0OrvQU-1" value="" style="rounded=0;whiteSpace=wrap;html=1;fillColor=#dae8fc;strokeColor=#6c8ebf;" vertex="1" parent="1">
          <mxGeometry x="923" y="140" width="770" height="760" as="geometry" />
        </mxCell>
        <mxCell id="it-Qx0HV6BYF5Q0OrvQU-2" style="edgeStyle=orthogonalEdgeStyle;rounded=0;orthogonalLoop=1;jettySize=auto;html=1;entryX=1;entryY=0.5;entryDx=0;entryDy=0;" edge="1" parent="1" source="it-Qx0HV6BYF5Q0OrvQU-5" target="it-Qx0HV6BYF5Q0OrvQU-6">
          <mxGeometry relative="1" as="geometry" />
        </mxCell>
        <mxCell id="it-Qx0HV6BYF5Q0OrvQU-3" style="edgeStyle=orthogonalEdgeStyle;rounded=0;orthogonalLoop=1;jettySize=auto;html=1;entryX=1;entryY=0.5;entryDx=0;entryDy=0;" edge="1" parent="1" source="it-Qx0HV6BYF5Q0OrvQU-5" target="it-Qx0HV6BYF5Q0OrvQU-24">
          <mxGeometry relative="1" as="geometry">
            <Array as="points">
              <mxPoint x="1653" y="280" />
              <mxPoint x="1653" y="360" />
            </Array>
          </mxGeometry>
        </mxCell>
        <mxCell id="it-Qx0HV6BYF5Q0OrvQU-4" style="edgeStyle=orthogonalEdgeStyle;rounded=0;orthogonalLoop=1;jettySize=auto;html=1;entryX=1;entryY=0.5;entryDx=0;entryDy=0;" edge="1" parent="1" source="it-Qx0HV6BYF5Q0OrvQU-5" target="it-Qx0HV6BYF5Q0OrvQU-25">
          <mxGeometry relative="1" as="geometry">
            <Array as="points">
              <mxPoint x="1663" y="290" />
              <mxPoint x="1663" y="660" />
            </Array>
          </mxGeometry>
        </mxCell>
        <mxCell id="it-Qx0HV6BYF5Q0OrvQU-5" value="lender" style="shape=umlActor;verticalLabelPosition=bottom;verticalAlign=top;html=1;outlineConnect=0;" vertex="1" parent="1">
          <mxGeometry x="1733" y="240" width="30" height="60" as="geometry" />
        </mxCell>
        <mxCell id="it-Qx0HV6BYF5Q0OrvQU-6" value="lend_loan" style="ellipse;whiteSpace=wrap;html=1;fillColor=#9AC7BF;" vertex="1" parent="1">
          <mxGeometry x="1433" y="240" width="150" height="60" as="geometry" />
        </mxCell>
        <mxCell id="it-Qx0HV6BYF5Q0OrvQU-7" value="choose liqudity pool &amp;amp;&amp;amp;&lt;br&gt;amount" style="ellipse;whiteSpace=wrap;html=1;fillColor=#9AC7BF;" vertex="1" parent="1">
          <mxGeometry x="1223" y="240" width="150" height="60" as="geometry" />
        </mxCell>
        <mxCell id="it-Qx0HV6BYF5Q0OrvQU-8" value="&amp;lt;&amp;lt;include&amp;gt;&amp;gt;" style="endArrow=open;dashed=1;html=1;dashPattern=1 3;strokeWidth=2;rounded=0;entryX=0;entryY=0.5;entryDx=0;entryDy=0;exitX=1;exitY=0.5;exitDx=0;exitDy=0;endFill=0;" edge="1" parent="1" source="it-Qx0HV6BYF5Q0OrvQU-7" target="it-Qx0HV6BYF5Q0OrvQU-6">
          <mxGeometry y="10" width="50" height="50" relative="1" as="geometry">
            <mxPoint x="1233" y="380" as="sourcePoint" />
            <mxPoint x="1283" y="330" as="targetPoint" />
            <mxPoint as="offset" />
          </mxGeometry>
        </mxCell>
        <mxCell id="it-Qx0HV6BYF5Q0OrvQU-9" style="edgeStyle=orthogonalEdgeStyle;rounded=0;orthogonalLoop=1;jettySize=auto;html=1;entryX=0;entryY=0.5;entryDx=0;entryDy=0;" edge="1" parent="1" source="it-Qx0HV6BYF5Q0OrvQU-14" target="it-Qx0HV6BYF5Q0OrvQU-31">
          <mxGeometry relative="1" as="geometry">
            <Array as="points">
              <mxPoint x="880" y="520" />
              <mxPoint x="880" y="360" />
            </Array>
          </mxGeometry>
        </mxCell>
        <mxCell id="it-Qx0HV6BYF5Q0OrvQU-10" style="edgeStyle=orthogonalEdgeStyle;rounded=0;orthogonalLoop=1;jettySize=auto;html=1;entryX=0;entryY=0.5;entryDx=0;entryDy=0;" edge="1" parent="1" source="it-Qx0HV6BYF5Q0OrvQU-14" target="it-Qx0HV6BYF5Q0OrvQU-23">
          <mxGeometry relative="1" as="geometry">
            <Array as="points">
              <mxPoint x="870" y="520" />
              <mxPoint x="870" y="775" />
            </Array>
          </mxGeometry>
        </mxCell>
        <mxCell id="it-Qx0HV6BYF5Q0OrvQU-11" style="edgeStyle=orthogonalEdgeStyle;rounded=0;orthogonalLoop=1;jettySize=auto;html=1;entryX=0;entryY=0.5;entryDx=0;entryDy=0;" edge="1" parent="1" source="it-Qx0HV6BYF5Q0OrvQU-14" target="it-Qx0HV6BYF5Q0OrvQU-39">
          <mxGeometry relative="1" as="geometry">
            <Array as="points">
              <mxPoint x="880" y="520" />
              <mxPoint x="880" y="660" />
            </Array>
          </mxGeometry>
        </mxCell>
        <mxCell id="it-Qx0HV6BYF5Q0OrvQU-12" style="edgeStyle=orthogonalEdgeStyle;rounded=0;orthogonalLoop=1;jettySize=auto;html=1;entryX=0;entryY=0.5;entryDx=0;entryDy=0;" edge="1" parent="1" source="it-Qx0HV6BYF5Q0OrvQU-14" target="it-Qx0HV6BYF5Q0OrvQU-19">
          <mxGeometry relative="1" as="geometry">
            <Array as="points">
              <mxPoint x="870" y="520" />
              <mxPoint x="870" y="270" />
            </Array>
          </mxGeometry>
        </mxCell>
        <mxCell id="it-Qx0HV6BYF5Q0OrvQU-13" style="edgeStyle=orthogonalEdgeStyle;rounded=0;orthogonalLoop=1;jettySize=auto;html=1;entryX=0;entryY=0.5;entryDx=0;entryDy=0;" edge="1" parent="1" source="it-Qx0HV6BYF5Q0OrvQU-14" target="it-Qx0HV6BYF5Q0OrvQU-43">
          <mxGeometry relative="1" as="geometry">
            <Array as="points">
              <mxPoint x="860" y="520" />
              <mxPoint x="860" y="180" />
            </Array>
          </mxGeometry>
        </mxCell>
        <mxCell id="it-Qx0HV6BYF5Q0OrvQU-14" value="fuseLoan" style="shape=umlActor;verticalLabelPosition=bottom;verticalAlign=top;html=1;outlineConnect=0;" vertex="1" parent="1">
          <mxGeometry x="800" y="490" width="30" height="60" as="geometry" />
        </mxCell>
        <mxCell id="it-Qx0HV6BYF5Q0OrvQU-15" style="edgeStyle=orthogonalEdgeStyle;rounded=0;orthogonalLoop=1;jettySize=auto;html=1;entryX=0.5;entryY=1;entryDx=0;entryDy=0;" edge="1" parent="1" source="it-Qx0HV6BYF5Q0OrvQU-16" target="it-Qx0HV6BYF5Q0OrvQU-22">
          <mxGeometry relative="1" as="geometry">
            <Array as="points">
              <mxPoint x="1298" y="920" />
            </Array>
          </mxGeometry>
        </mxCell>
        <mxCell id="it-Qx0HV6BYF5Q0OrvQU-16" value="oracle" style="shape=umlActor;verticalLabelPosition=bottom;verticalAlign=top;html=1;outlineConnect=0;" vertex="1" parent="1">
          <mxGeometry x="1253" y="910" width="30" height="60" as="geometry" />
        </mxCell>
        <mxCell id="it-Qx0HV6BYF5Q0OrvQU-17" value="&amp;lt;&amp;lt;include&amp;gt;&amp;gt;" style="edgeStyle=orthogonalEdgeStyle;rounded=0;orthogonalLoop=1;jettySize=auto;html=1;entryX=0;entryY=0.5;entryDx=0;entryDy=0;dashed=1;" edge="1" parent="1" source="it-Qx0HV6BYF5Q0OrvQU-19" target="it-Qx0HV6BYF5Q0OrvQU-7">
          <mxGeometry x="0.08" y="20" relative="1" as="geometry">
            <mxPoint as="offset" />
          </mxGeometry>
        </mxCell>
        <mxCell id="it-Qx0HV6BYF5Q0OrvQU-18" value="&amp;lt;&amp;lt;include&amp;gt;&amp;gt;" style="edgeStyle=orthogonalEdgeStyle;rounded=0;orthogonalLoop=1;jettySize=auto;html=1;entryX=0.5;entryY=1;entryDx=0;entryDy=0;dashed=1;" edge="1" parent="1" source="it-Qx0HV6BYF5Q0OrvQU-19" target="it-Qx0HV6BYF5Q0OrvQU-43">
          <mxGeometry relative="1" as="geometry" />
        </mxCell>
        <mxCell id="it-Qx0HV6BYF5Q0OrvQU-19" value="deposit lender&#39;s &lt;br&gt;money into liqudity pool" style="ellipse;whiteSpace=wrap;html=1;fillColor=#9AC7BF;" vertex="1" parent="1">
          <mxGeometry x="1023" y="240" width="150" height="60" as="geometry" />
        </mxCell>
        <mxCell id="it-Qx0HV6BYF5Q0OrvQU-20" value="&amp;lt;&amp;lt;include&amp;gt;&amp;gt;" style="edgeStyle=orthogonalEdgeStyle;rounded=0;orthogonalLoop=1;jettySize=auto;html=1;entryX=1;entryY=0.5;entryDx=0;entryDy=0;dashed=1;startArrow=classic;startFill=1;endArrow=none;endFill=0;" edge="1" parent="1" source="it-Qx0HV6BYF5Q0OrvQU-22" target="it-Qx0HV6BYF5Q0OrvQU-23">
          <mxGeometry x="-0.2" y="-25" relative="1" as="geometry">
            <mxPoint as="offset" />
          </mxGeometry>
        </mxCell>
        <mxCell id="it-Qx0HV6BYF5Q0OrvQU-21" value="&amp;lt;&amp;lt;include&amp;gt;&amp;gt;" style="edgeStyle=orthogonalEdgeStyle;rounded=0;orthogonalLoop=1;jettySize=auto;html=1;dashed=1;" edge="1" parent="1" source="it-Qx0HV6BYF5Q0OrvQU-22" target="it-Qx0HV6BYF5Q0OrvQU-42">
          <mxGeometry x="0.1034" y="25" relative="1" as="geometry">
            <mxPoint as="offset" />
          </mxGeometry>
        </mxCell>
        <mxCell id="it-Qx0HV6BYF5Q0OrvQU-22" value="trigger, intrests" style="ellipse;whiteSpace=wrap;html=1;fillColor=#97D077;" vertex="1" parent="1">
          <mxGeometry x="1223" y="745" width="150" height="60" as="geometry" />
        </mxCell>
        <mxCell id="it-Qx0HV6BYF5Q0OrvQU-23" value="mark suitable amount of intrest to lenders in FLT&amp;nbsp;" style="ellipse;whiteSpace=wrap;html=1;fillColor=#97D077;" vertex="1" parent="1">
          <mxGeometry x="1023" y="747.5" width="150" height="55" as="geometry" />
        </mxCell>
        <mxCell id="it-Qx0HV6BYF5Q0OrvQU-24" value="reedem money from liqudity pool" style="ellipse;whiteSpace=wrap;html=1;fillColor=#F19C99;" vertex="1" parent="1">
          <mxGeometry x="1443" y="330" width="150" height="60" as="geometry" />
        </mxCell>
        <mxCell id="it-Qx0HV6BYF5Q0OrvQU-25" value="claim intrest" style="ellipse;whiteSpace=wrap;html=1;fillColor=#FFCE9F;" vertex="1" parent="1">
          <mxGeometry x="1443" y="630" width="150" height="60" as="geometry" />
        </mxCell>
        <mxCell id="it-Qx0HV6BYF5Q0OrvQU-26" value="&amp;lt;&amp;lt;include&amp;gt;&amp;gt;" style="edgeStyle=orthogonalEdgeStyle;rounded=0;orthogonalLoop=1;jettySize=auto;html=1;entryX=0;entryY=0.5;entryDx=0;entryDy=0;dashed=1;" edge="1" parent="1" source="it-Qx0HV6BYF5Q0OrvQU-27" target="it-Qx0HV6BYF5Q0OrvQU-24">
          <mxGeometry y="10" relative="1" as="geometry">
            <mxPoint as="offset" />
          </mxGeometry>
        </mxCell>
        <mxCell id="it-Qx0HV6BYF5Q0OrvQU-27" value="choose given currency" style="ellipse;whiteSpace=wrap;html=1;fillColor=#F19C99;" vertex="1" parent="1">
          <mxGeometry x="1223" y="330" width="150" height="60" as="geometry" />
        </mxCell>
        <mxCell id="it-Qx0HV6BYF5Q0OrvQU-28" value="&amp;lt;&amp;lt;include&amp;gt;&amp;gt;" style="edgeStyle=orthogonalEdgeStyle;rounded=0;orthogonalLoop=1;jettySize=auto;html=1;entryX=0;entryY=0.5;entryDx=0;entryDy=0;dashed=1;" edge="1" parent="1" source="it-Qx0HV6BYF5Q0OrvQU-31" target="it-Qx0HV6BYF5Q0OrvQU-27">
          <mxGeometry x="-0.2" y="20" relative="1" as="geometry">
            <mxPoint as="offset" />
          </mxGeometry>
        </mxCell>
        <mxCell id="it-Qx0HV6BYF5Q0OrvQU-29" value="&amp;lt;&amp;lt;extend&amp;gt;&amp;gt;" style="edgeStyle=orthogonalEdgeStyle;rounded=0;orthogonalLoop=1;jettySize=auto;html=1;entryX=0.5;entryY=0;entryDx=0;entryDy=0;dashed=1;" edge="1" parent="1" source="it-Qx0HV6BYF5Q0OrvQU-31" target="it-Qx0HV6BYF5Q0OrvQU-32">
          <mxGeometry relative="1" as="geometry" />
        </mxCell>
        <mxCell id="it-Qx0HV6BYF5Q0OrvQU-30" value="&amp;lt;&amp;lt;extend&amp;gt;&amp;gt;" style="edgeStyle=orthogonalEdgeStyle;rounded=0;orthogonalLoop=1;jettySize=auto;html=1;entryX=0.5;entryY=0;entryDx=0;entryDy=0;dashed=1;" edge="1" parent="1" source="it-Qx0HV6BYF5Q0OrvQU-31" target="it-Qx0HV6BYF5Q0OrvQU-33">
          <mxGeometry relative="1" as="geometry">
            <Array as="points">
              <mxPoint x="1153" y="410" />
              <mxPoint x="1298" y="410" />
            </Array>
          </mxGeometry>
        </mxCell>
        <mxCell id="it-Qx0HV6BYF5Q0OrvQU-31" value="check reedem conditions &quot;_&quot;" style="ellipse;whiteSpace=wrap;html=1;fillColor=#F19C99;" vertex="1" parent="1">
          <mxGeometry x="1023" y="330" width="150" height="60" as="geometry" />
        </mxCell>
        <mxCell id="it-Qx0HV6BYF5Q0OrvQU-32" value="lender: accept conditions" style="ellipse;whiteSpace=wrap;html=1;fillColor=#F19C99;" vertex="1" parent="1">
          <mxGeometry x="1023" y="430" width="150" height="60" as="geometry" />
        </mxCell>
        <mxCell id="it-Qx0HV6BYF5Q0OrvQU-33" value="lender: decline conditions" style="ellipse;whiteSpace=wrap;html=1;fillColor=#F19C99;" vertex="1" parent="1">
          <mxGeometry x="1223" y="430" width="150" height="60" as="geometry" />
        </mxCell>
        <mxCell id="it-Qx0HV6BYF5Q0OrvQU-34" value="&amp;lt;&amp;lt;include&amp;gt;&amp;gt;" style="edgeStyle=orthogonalEdgeStyle;rounded=0;orthogonalLoop=1;jettySize=auto;html=1;entryX=0.5;entryY=1;entryDx=0;entryDy=0;dashed=1;" edge="1" parent="1" source="it-Qx0HV6BYF5Q0OrvQU-35" target="it-Qx0HV6BYF5Q0OrvQU-32">
          <mxGeometry relative="1" as="geometry" />
        </mxCell>
        <mxCell id="it-Qx0HV6BYF5Q0OrvQU-35" value="reedem money under accepted conditions" style="ellipse;whiteSpace=wrap;html=1;fillColor=#F19C99;" vertex="1" parent="1">
          <mxGeometry x="1023" y="530" width="150" height="60" as="geometry" />
        </mxCell>
        <mxCell id="it-Qx0HV6BYF5Q0OrvQU-36" value="&amp;lt;&amp;lt;include&amp;gt;&amp;gt;" style="edgeStyle=orthogonalEdgeStyle;rounded=0;orthogonalLoop=1;jettySize=auto;html=1;entryX=0;entryY=0.5;entryDx=0;entryDy=0;dashed=1;" edge="1" parent="1" target="it-Qx0HV6BYF5Q0OrvQU-25">
          <mxGeometry y="10" relative="1" as="geometry">
            <mxPoint x="1343" y="660" as="sourcePoint" />
            <mxPoint x="1413" y="660" as="targetPoint" />
            <mxPoint as="offset" />
          </mxGeometry>
        </mxCell>
        <mxCell id="it-Qx0HV6BYF5Q0OrvQU-37" value="choose currency intrest" style="ellipse;whiteSpace=wrap;html=1;fillColor=#FFCE9F;" vertex="1" parent="1">
          <mxGeometry x="1223" y="630" width="150" height="60" as="geometry" />
        </mxCell>
        <mxCell id="it-Qx0HV6BYF5Q0OrvQU-38" value="&amp;lt;&amp;lt;include&amp;gt;" style="edgeStyle=orthogonalEdgeStyle;rounded=0;orthogonalLoop=1;jettySize=auto;html=1;entryX=0;entryY=0.5;entryDx=0;entryDy=0;dashed=1;exitX=1;exitY=0.5;exitDx=0;exitDy=0;" edge="1" parent="1" source="it-Qx0HV6BYF5Q0OrvQU-39" target="it-Qx0HV6BYF5Q0OrvQU-37">
          <mxGeometry x="-0.2" y="20" relative="1" as="geometry">
            <mxPoint x="1143" y="660" as="sourcePoint" />
            <mxPoint x="1193" y="660" as="targetPoint" />
            <Array as="points" />
            <mxPoint as="offset" />
          </mxGeometry>
        </mxCell>
        <mxCell id="it-Qx0HV6BYF5Q0OrvQU-39" value="send intrest&lt;br&gt;(fuseLoan -&amp;gt; collateral)" style="ellipse;whiteSpace=wrap;html=1;fillColor=#FFCE9F;" vertex="1" parent="1">
          <mxGeometry x="1023" y="630" width="150" height="60" as="geometry" />
        </mxCell>
        <mxCell id="it-Qx0HV6BYF5Q0OrvQU-40" style="edgeStyle=orthogonalEdgeStyle;rounded=0;orthogonalLoop=1;jettySize=auto;html=1;entryX=1;entryY=0.5;entryDx=0;entryDy=0;" edge="1" parent="1" source="it-Qx0HV6BYF5Q0OrvQU-41" target="it-Qx0HV6BYF5Q0OrvQU-42">
          <mxGeometry relative="1" as="geometry" />
        </mxCell>
        <mxCell id="it-Qx0HV6BYF5Q0OrvQU-41" value="Time" style="shape=umlActor;verticalLabelPosition=bottom;verticalAlign=top;html=1;outlineConnect=0;" vertex="1" parent="1">
          <mxGeometry x="1703" y="745" width="30" height="60" as="geometry" />
        </mxCell>
        <mxCell id="it-Qx0HV6BYF5Q0OrvQU-42" value="day have been passed" style="ellipse;whiteSpace=wrap;html=1;fillColor=#97D077;" vertex="1" parent="1">
          <mxGeometry x="1445.5" y="745" width="145" height="60" as="geometry" />
        </mxCell>
        <mxCell id="it-Qx0HV6BYF5Q0OrvQU-43" value="pair amount suitable FLT_currency to lender" style="ellipse;whiteSpace=wrap;html=1;fillColor=#9AC7BF;" vertex="1" parent="1">
          <mxGeometry x="1023" y="150" width="150" height="60" as="geometry" />
        </mxCell>
      </root>
    </mxGraphModel>
  </diagram>
</mxfile>
